<?xml version="1.0" encoding="UTF-8"?>
<svg version="1.1" xmlns="http://www.w3.org/2000/svg" width="23" height="23">
<path d="M0 0 C-1.66463038 4.28642324 -4.79075837 7.08617217 -8 10.25 C-8.5465625 10.80429688 -9.093125 11.35859375 -9.65625 11.9296875 C-13.7466133 16 -13.7466133 16 -16 16 C-15.14383804 11.38989712 -12.37255592 8.92910626 -9.125 5.75 C-8.58230469 5.19570312 -8.03960937 4.64140625 -7.48046875 4.0703125 C-3.38008005 0 -3.38008005 0 0 0 Z " fill="#000000" transform="translate(19,3)"/>
<path d="M0 0 C-1.59092052 4.13639336 -4.60474918 7.23213248 -8 10 C-8.66 10 -9.32 10 -10 10 C-9.41978222 6.7451198 -8.47352859 5.06347592 -6.125 2.75 C-5.61195312 2.22921875 -5.09890625 1.7084375 -4.5703125 1.171875 C-3 0 -3 0 0 0 Z " fill="#000000" transform="translate(21,11)"/>
</svg>
